<svg id="Layer_1" data-name="Layer 1" xmlns="http://www.w3.org/2000/svg" xmlns:xlink="http://www.w3.org/1999/xlink" viewBox="0 0 1083.19 1925.33">
  <title>ui</title>
  <g id="a">
    <image width="1080" height="1920" transform="translate(0 2.85)" xlink:href="ui/a.png"/>
    <g id="a9">
      <path d="M132.68,1289.33A89,89,0,0,1,60.75,1148a89.33,89.33,0,0,1,72.07-36.7,89,89,0,0,1,71.94,141.32A89.35,89.35,0,0,1,132.68,1289.33Z" transform="translate(0.09 3)"/>
      <path d="M132.82,1112.81A87.51,87.51,0,1,1,62,1148.89a87.12,87.12,0,0,1,70.86-36.08m0-3v0a90.5,90.5,0,0,0-53.27,163.72,89.78,89.78,0,0,0,53.12,17.29A90.5,90.5,0,0,0,186,1127.1a89.85,89.85,0,0,0-53.12-17.29Z" transform="translate(0.09 3)"/>
    </g>
    <g id="a10">
      <path d="M133.68,1017.7A89,89,0,0,1,61.75,876.38a89.32,89.32,0,0,1,72.07-36.69A89,89,0,0,1,205.76,981,89.35,89.35,0,0,1,133.68,1017.7Z" transform="translate(0.09 3)"/>
      <path d="M133.82,841.19A87.5,87.5,0,1,1,63,877.26a87,87,0,0,1,70.86-36.07m0-3v0a90.5,90.5,0,0,0-53.27,163.72,89.85,89.85,0,0,0,53.12,17.29A90.5,90.5,0,0,0,187,855.48a89.78,89.78,0,0,0-53.12-17.29Z" transform="translate(0.09 3)"/>
    </g>
    <g id="a1">
      <path d="M293.54,797.09a89,89,0,0,1-71.93-141.32,89.33,89.33,0,0,1,72.07-36.7,89,89,0,0,1,71.93,141.32A89.32,89.32,0,0,1,293.54,797.09Z" transform="translate(0.09 3)"/>
      <path d="M293.68,620.57a87.51,87.51,0,1,1-70.86,36.08,87.12,87.12,0,0,1,70.86-36.08m0-3v0a90.38,90.38,0,0,0-73.29,37.32,90.48,90.48,0,1,0,73.29-37.32Z" transform="translate(0.09 3)"/>
    </g>
    <g id="a2">
      <path d="M551.39,714a89,89,0,0,1-71.93-141.32A89.37,89.37,0,0,1,551.54,536a89,89,0,0,1,71.93,141.32A89.33,89.33,0,0,1,551.39,714Z" transform="translate(0.09 3)"/>
      <path d="M551.54,537.45a87.5,87.5,0,1,1-70.86,36.07,87.07,87.07,0,0,1,70.86-36.07m0-3v0a90.5,90.5,0,0,0-53.27,163.72,89.85,89.85,0,0,0,53.12,17.29,90.34,90.34,0,0,0,73.29-37.31,90.51,90.51,0,0,0-73.14-143.7Z" transform="translate(0.09 3)"/>
    </g>
    <g id="a3">
      <path d="M809.55,797.72A89,89,0,0,1,737.62,656.4a89.32,89.32,0,0,1,72.07-36.7A89,89,0,0,1,881.62,761,89.32,89.32,0,0,1,809.55,797.72Z" transform="translate(0.09 3)"/>
      <path d="M809.69,621.2a87.51,87.51,0,1,1-70.86,36.08,87.12,87.12,0,0,1,70.86-36.08m0-3v0a90.51,90.51,0,0,0-53.26,163.73,89.8,89.8,0,0,0,53.12,17.29,90.51,90.51,0,0,0,53.26-163.73A89.79,89.79,0,0,0,809.7,618.2Z" transform="translate(0.09 3)"/>
    </g>
    <g id="a4">
      <path d="M969.75,1017.68a89,89,0,0,1-71.93-141.32,89.35,89.35,0,0,1,72.07-36.69A89,89,0,0,1,1041.83,981,89.37,89.37,0,0,1,969.75,1017.68Z" transform="translate(0.09 3)"/>
      <path d="M969.89,841.17A87.5,87.5,0,1,1,899,877.24a87,87,0,0,1,70.86-36.07m0-3v0a90.41,90.41,0,0,0-73.29,37.31,90.51,90.51,0,0,0,73.14,143.7A90.5,90.5,0,0,0,1023,855.46a89.85,89.85,0,0,0-53.12-17.29Z" transform="translate(0.09 3)"/>
    </g>
    <g id="a5">
      <path d="M968.75,1289.32A89,89,0,0,1,896.82,1148a89.35,89.35,0,0,1,72.08-36.69,89,89,0,0,1,71.93,141.32A89.34,89.34,0,0,1,968.75,1289.32Z" transform="translate(0.09 3)"/>
      <path d="M968.89,1112.81A87.51,87.51,0,1,1,898,1148.89a87,87,0,0,1,70.86-36.08m0-3v0a90.5,90.5,0,0,0-53.27,163.72,89.85,89.85,0,0,0,53.12,17.29A90.5,90.5,0,0,0,1022,1127.1a89.85,89.85,0,0,0-53.12-17.29Z" transform="translate(0.09 3)"/>
    </g>
    <g id="a8">
      <path d="M293,1508.64a89,89,0,0,1-71.93-141.33,89.33,89.33,0,0,1,72.08-36.7A89,89,0,0,1,365.12,1472,89.35,89.35,0,0,1,293,1508.64Z" transform="translate(0.09 3)"/>
      <path d="M293.19,1332.11a87.51,87.51,0,1,1-70.87,36.08,87.14,87.14,0,0,1,70.87-36.08m0-3v0a90.51,90.51,0,0,0-53.27,163.74A89.85,89.85,0,0,0,293,1510.14a90.51,90.51,0,0,0,53.27-163.73,89.79,89.79,0,0,0-53.12-17.3Z" transform="translate(0.09 3)"/>
    </g>
    <g id="a6">
      <path d="M810,1508.64a89,89,0,0,1-71.93-141.32,89.35,89.35,0,0,1,72.08-36.7,89,89,0,0,1,71.93,141.32A89.35,89.35,0,0,1,810,1508.64Z" transform="translate(0.09 3)"/>
      <path d="M810.16,1332.12a87.51,87.51,0,1,1-70.86,36.08,87.16,87.16,0,0,1,70.86-36.08m0-3v0a90.51,90.51,0,0,0-53.27,163.73A89.85,89.85,0,0,0,810,1510.14a90.51,90.51,0,0,0,53.27-163.73,89.85,89.85,0,0,0-53.12-17.29Z" transform="translate(0.09 3)"/>
    </g>
    <g id="a7">
      <path d="M551.64,1593.14a89,89,0,0,1-71.93-141.32,89.35,89.35,0,0,1,72.07-36.69,89,89,0,0,1,71.93,141.32A89.31,89.31,0,0,1,551.64,1593.14Z" transform="translate(0.09 3)"/>
      <path d="M551.78,1416.63a87.51,87.51,0,1,1-70.86,36.08,87,87,0,0,1,70.86-36.08m0-3v0a90.5,90.5,0,0,0-53.27,163.72,89.8,89.8,0,0,0,53.12,17.29,90.5,90.5,0,0,0,53.27-163.72,89.85,89.85,0,0,0-53.12-17.29Z" transform="translate(0.09 3)"/>
    </g>
  </g>
  <g id="b">
    <image x="0.09" y="3" width="1080" height="1920" xlink:href="ui/b.png"/>
    <rect id="b1" x="125.59" y="791.5" width="260" height="174" fill="#6162b1"/>
    <rect id="b2" x="408.09" y="792" width="260" height="174" fill="#6162b1"/>
    <rect id="b3" x="691.09" y="792" width="260" height="174" fill="#6162b1"/>
    <rect id="b4" x="125.59" y="988.5" width="260" height="174" fill="#6162b1"/>
    <rect id="b5" x="409.09" y="989" width="260" height="174" fill="#6162b1"/>
    <rect id="b6" x="691.09" y="989" width="260" height="174" fill="#6162b1"/>
    <rect id="b7" x="125.09" y="1192" width="260" height="174" fill="#6162b1"/>
    <rect id="b9" x="691.09" y="1192" width="260" height="174" fill="#6162b1"/>
    <rect id="b10" x="125.59" y="1395.5" width="260" height="174" fill="#6162b1"/>
    <rect id="b12" x="691.09" y="1396" width="260" height="174" fill="#6162b1"/>
    <rect id="b8" x="410.09" y="1192" width="260" height="174" fill="#6162b1"/>
    <rect id="b11" x="409.09" y="1396" width="260" height="174" fill="#6162b1"/>
  </g>
  <g id="c">
    <image x="0.09" y="3" width="1080" height="1920" xlink:href="ui/C.png"/>
    <rect id="c1" x="100.93" y="848.73" width="384.96" height="473.12" rx="12" ry="12" fill="#e6e6e6" stroke="#ffc5c1" stroke-miterlimit="10"/>
    <rect id="c2" x="594.29" y="848.73" width="384.96" height="473.12" rx="12" ry="12" fill="#e6e6e6" stroke="#ffc5c1" stroke-miterlimit="10"/>
    <rect id="c3" x="594.29" y="1388.01" width="384.96" height="473.12" rx="12" ry="12" fill="#e6e6e6" stroke="#ffc5c1" stroke-miterlimit="10"/>
    <rect id="c4" x="100.93" y="1388.01" width="384.96" height="473.12" rx="12" ry="12" fill="#e6e6e6" stroke="#ffc5c1" stroke-miterlimit="10"/>
  </g>
  <g id="d">
    <image width="1080" height="1920" transform="translate(3.19 3)" xlink:href="ui/d.png"/>
    <ellipse id="d1" cx="534.91" cy="773.3" rx="429.04" ry="415.54" fill="#fff" stroke="#900" stroke-miterlimit="10" stroke-width="7"/>
    <ellipse id="d2" cx="561.41" cy="1516.41" rx="478.55" ry="404.5" fill="#fff" stroke="#900" stroke-miterlimit="10" stroke-width="7"/>
  </g>
  <g id="e">
    <image width="1080" height="1920" transform="translate(0.21 3)" xlink:href="ui/e.png"/>
    <ellipse id="e1" cx="536.55" cy="546" rx="260.53" ry="214" fill="#ed1c24" stroke="#000" stroke-width="10"/>
    <ellipse id="e2" cx="544.05" cy="1041" rx="265.03" ry="218" fill="#ed1c24" stroke="#000" stroke-width="10"/>
    <ellipse id="e3" cx="544.05" cy="1566.81" rx="265.03" ry="218" fill="#ed1c24" stroke="#000" stroke-width="10"/>
  </g>
  <g id="h">
    <image width="1080" height="1920" transform="translate(0.13 0.98)" xlink:href="ui/h.png"/>
    <circle id="h1" cx="338.89" cy="765.8" r="174.02" fill="#ccc" stroke="#ed1c24" stroke-miterlimit="10" stroke-width="5"/>
    <circle id="h2" cx="743.99" cy="765.8" r="174.02" fill="#ccc" stroke="#29abe2" stroke-miterlimit="10" stroke-width="5"/>
    <circle id="h4" cx="741.99" cy="1146.61" r="174.02" fill="#ccc" stroke="#ed1c24" stroke-miterlimit="10" stroke-width="5"/>
    <circle id="h3" cx="337.89" cy="1144.61" r="174.02" fill="#ccc" stroke="#29abe2" stroke-miterlimit="10" stroke-width="5"/>
    <circle id="h5" cx="546.21" cy="1507.64" r="174.02" fill="#ccc" stroke="#ed1c24" stroke-miterlimit="10" stroke-width="5"/>
  </g>
  <g id="i">
    <image x="0.09" y="3" width="1080" height="1920" xlink:href="ui/i.png"/>
    <rect id="i1" x="225.09" y="1272" width="640" height="176" fill="#3f3636" opacity="0.4"/>
    <rect id="i2" x="225.09" y="1536" width="640" height="176" fill="#3f3636" opacity="0.4"/>
  </g>
  <g id="j">
    <image width="1080" height="1920" transform="translate(0.09)" xlink:href="ui/j.png"/>
    <polygon id="j1" points="998.9 809.29 679.08 805.9 672.31 686.61 995.52 691.68 998.9 809.29" fill="#ffd800"/>
    <polygon id="j2" points="998.9 986.54 679.08 983.16 672.31 863.86 995.52 868.94 998.9 986.54" fill="#005bc1"/>
    <polygon id="j3" points="998.9 1167.61 679.08 1164.22 672.31 1044.93 995.52 1050 998.9 1167.61" fill="#ffd800"/>
    <polygon id="j4" points="1000.17 1444.28 678.65 1439.2 672.31 1215.84 995.52 1220.91 1000.17 1444.28" fill="#005bc1"/>
  </g>
  <g id="l">
    <image x="0.09" y="3" width="1080" height="1920" xlink:href="ui/l.png"/>
    <rect id="L1" x="81.93" y="1359.95" width="400.98" height="126.09" fill="#fff"/>
    <rect id="L2" x="571.68" y="1359.95" width="400.98" height="126.09" fill="#fff"/>
    <rect id="L3" x="81.93" y="1592.12" width="400.98" height="126.09" fill="#fff"/>
    <rect id="L4" x="571.68" y="1592.12" width="400.98" height="126.09" fill="#fff"/>
  </g>
  <g id="home">
    <image x="0.09" y="3" width="1080" height="1920" xlink:href="ui/home.png"/>
    <rect id="zo" x="709.28" y="1417.57" width="186.31" height="186.31" fill="#0071bc" stroke="#fff" stroke-miterlimit="10" stroke-width="3"/>
    <rect id="zn" x="448.44" y="1417.57" width="186.31" height="186.31" fill="#0071bc" stroke="#fff" stroke-miterlimit="10" stroke-width="3"/>
    <rect id="zm" x="184.67" y="1417.57" width="186.31" height="186.31" fill="#0071bc" stroke="#fff" stroke-miterlimit="10" stroke-width="3"/>
    <rect id="zl" x="707.78" y="1156.82" width="186.31" height="186.31" fill="#0071bc" stroke="#fff" stroke-miterlimit="10" stroke-width="3"/>
    <rect id="zk" x="446.94" y="1156.82" width="186.31" height="186.31" fill="#0071bc" stroke="#fff" stroke-miterlimit="10" stroke-width="3"/>
    <rect id="zj" x="183.17" y="1156.82" width="186.31" height="186.31" fill="#0071bc" stroke="#fff" stroke-miterlimit="10" stroke-width="3"/>
    <rect id="zi" x="707.65" y="896.06" width="186.31" height="186.31" fill="#0071bc" stroke="#fff" stroke-miterlimit="10" stroke-width="3"/>
    <rect id="zh" x="446.81" y="896.06" width="186.31" height="186.31" fill="#0071bc" stroke="#fff" stroke-miterlimit="10" stroke-width="3"/>
    <rect id="zg" x="183.04" y="896.06" width="186.31" height="186.31" fill="#0071bc" stroke="#fff" stroke-miterlimit="10" stroke-width="3"/>
    <rect id="zf" x="706.25" y="633.55" width="186.31" height="186.31" fill="#0071bc" stroke="#fff" stroke-miterlimit="10" stroke-width="3"/>
    <rect id="ze" x="445.41" y="633.55" width="186.31" height="186.31" fill="#0071bc" stroke="#fff" stroke-miterlimit="10" stroke-width="3"/>
    <rect id="zd" x="181.64" y="633.55" width="186.31" height="186.31" fill="#0071bc" stroke="#fff" stroke-miterlimit="10" stroke-width="3"/>
    <rect id="zc" x="706.12" y="372.8" width="186.31" height="186.31" fill="#0071bc" stroke="#fff" stroke-miterlimit="10" stroke-width="3"/>
    <rect id="zb" x="445.28" y="372.8" width="186.31" height="186.31" fill="#0071bc" stroke="#fff" stroke-miterlimit="10" stroke-width="3"/>
    <rect id="za" x="181.51" y="372.8" width="186.31" height="186.31" fill="#0071bc" stroke="#fff" stroke-miterlimit="10" stroke-width="3"/>
  </g>
  <g id="back">
    <rect x="1.09" y="3" width="1078" height="82" fill="#e6184e"/>
    <text transform="translate(288.53 62.67)" font-size="48" fill="#fff" font-family="ArialMT, Arial">BACK<tspan x="130.71" y="0" xml:space="preserve" letter-spacing="-0.02em"> T</tspan><tspan x="171.63" y="0">O COUNTRIES</tspan></text>
  </g>
</svg>
