<svg id="Layer_1" data-name="Layer 1" xmlns="http://www.w3.org/2000/svg" xmlns:xlink="http://www.w3.org/1999/xlink" viewBox="0 0 1085 1926">
  <title>ui</title>
  <g id="a">
    <image width="1080" height="1920" transform="translate(0.91 2.85)" xlink:href="ui/a.png"/>
    <g id="a9">
      <path d="M132.68,1289.33A89,89,0,0,1,60.75,1148a89.33,89.33,0,0,1,72.07-36.7,89,89,0,0,1,71.94,141.32A89.35,89.35,0,0,1,132.68,1289.33Z" transform="translate(1 3)"/>
      <path d="M132.82,1112.81A87.51,87.51,0,1,1,62,1148.89a87.12,87.12,0,0,1,70.86-36.08m0-3v0a90.5,90.5,0,0,0-53.27,163.72,89.78,89.78,0,0,0,53.12,17.29A90.5,90.5,0,0,0,186,1127.1a89.85,89.85,0,0,0-53.12-17.29Z" transform="translate(1 3)"/>
    </g>
    <g id="a10">
      <path d="M133.68,1017.7A89,89,0,0,1,61.75,876.38a89.32,89.32,0,0,1,72.07-36.69A89,89,0,0,1,205.76,981,89.35,89.35,0,0,1,133.68,1017.7Z" transform="translate(1 3)"/>
      <path d="M133.82,841.19A87.5,87.5,0,1,1,63,877.26a87,87,0,0,1,70.86-36.07m0-3v0a90.5,90.5,0,0,0-53.27,163.72,89.85,89.85,0,0,0,53.12,17.29A90.5,90.5,0,0,0,187,855.48a89.78,89.78,0,0,0-53.12-17.29Z" transform="translate(1 3)"/>
    </g>
    <g id="a1">
      <path d="M293.54,797.09a89,89,0,0,1-71.93-141.32,89.33,89.33,0,0,1,72.07-36.7,89,89,0,0,1,71.93,141.32A89.32,89.32,0,0,1,293.54,797.09Z" transform="translate(1 3)"/>
      <path d="M293.68,620.57a87.51,87.51,0,1,1-70.86,36.08,87.12,87.12,0,0,1,70.86-36.08m0-3v0a90.38,90.38,0,0,0-73.29,37.32,90.48,90.48,0,1,0,73.29-37.32Z" transform="translate(1 3)"/>
    </g>
    <g id="a2">
      <path d="M551.39,714a89,89,0,0,1-71.93-141.32A89.37,89.37,0,0,1,551.54,536a89,89,0,0,1,71.93,141.32A89.33,89.33,0,0,1,551.39,714Z" transform="translate(1 3)"/>
      <path d="M551.54,537.45a87.5,87.5,0,1,1-70.86,36.07,87.07,87.07,0,0,1,70.86-36.07m0-3v0a90.5,90.5,0,0,0-53.27,163.72,89.85,89.85,0,0,0,53.12,17.29,90.34,90.34,0,0,0,73.29-37.31,90.51,90.51,0,0,0-73.14-143.7Z" transform="translate(1 3)"/>
    </g>
    <g id="a3">
      <path d="M809.55,797.72A89,89,0,0,1,737.62,656.4a89.32,89.32,0,0,1,72.07-36.7A89,89,0,0,1,881.62,761,89.32,89.32,0,0,1,809.55,797.72Z" transform="translate(1 3)"/>
      <path d="M809.69,621.2a87.51,87.51,0,1,1-70.86,36.08,87.12,87.12,0,0,1,70.86-36.08m0-3v0a90.51,90.51,0,0,0-53.26,163.73,89.8,89.8,0,0,0,53.12,17.29,90.51,90.51,0,0,0,53.26-163.73A89.79,89.79,0,0,0,809.7,618.2Z" transform="translate(1 3)"/>
    </g>
    <g id="a4">
      <path d="M969.75,1017.68a89,89,0,0,1-71.93-141.32,89.35,89.35,0,0,1,72.07-36.69A89,89,0,0,1,1041.83,981,89.37,89.37,0,0,1,969.75,1017.68Z" transform="translate(1 3)"/>
      <path d="M969.89,841.17A87.5,87.5,0,1,1,899,877.24a87,87,0,0,1,70.86-36.07m0-3v0a90.41,90.41,0,0,0-73.29,37.31,90.51,90.51,0,0,0,73.14,143.7A90.5,90.5,0,0,0,1023,855.46a89.85,89.85,0,0,0-53.12-17.29Z" transform="translate(1 3)"/>
    </g>
    <g id="a5">
      <path d="M968.75,1289.32A89,89,0,0,1,896.82,1148a89.35,89.35,0,0,1,72.08-36.69,89,89,0,0,1,71.93,141.32A89.34,89.34,0,0,1,968.75,1289.32Z" transform="translate(1 3)"/>
      <path d="M968.89,1112.81A87.51,87.51,0,1,1,898,1148.89a87,87,0,0,1,70.86-36.08m0-3v0a90.5,90.5,0,0,0-53.27,163.72,89.85,89.85,0,0,0,53.12,17.29A90.5,90.5,0,0,0,1022,1127.1a89.85,89.85,0,0,0-53.12-17.29Z" transform="translate(1 3)"/>
    </g>
    <g id="a8">
      <path d="M293,1508.64a89,89,0,0,1-71.93-141.33,89.33,89.33,0,0,1,72.08-36.7A89,89,0,0,1,365.12,1472,89.35,89.35,0,0,1,293,1508.64Z" transform="translate(1 3)"/>
      <path d="M293.19,1332.11a87.51,87.51,0,1,1-70.87,36.08,87.14,87.14,0,0,1,70.87-36.08m0-3v0a90.51,90.51,0,0,0-53.27,163.74A89.85,89.85,0,0,0,293,1510.14a90.51,90.51,0,0,0,53.27-163.73,89.79,89.79,0,0,0-53.12-17.3Z" transform="translate(1 3)"/>
    </g>
    <g id="a6">
      <path d="M810,1508.64a89,89,0,0,1-71.93-141.32,89.35,89.35,0,0,1,72.08-36.7,89,89,0,0,1,71.93,141.32A89.35,89.35,0,0,1,810,1508.64Z" transform="translate(1 3)"/>
      <path d="M810.16,1332.12a87.51,87.51,0,1,1-70.86,36.08,87.16,87.16,0,0,1,70.86-36.08m0-3v0a90.51,90.51,0,0,0-53.27,163.73A89.85,89.85,0,0,0,810,1510.14a90.51,90.51,0,0,0,53.27-163.73,89.85,89.85,0,0,0-53.12-17.29Z" transform="translate(1 3)"/>
    </g>
    <g id="a7">
      <path d="M551.64,1593.14a89,89,0,0,1-71.93-141.32,89.35,89.35,0,0,1,72.07-36.69,89,89,0,0,1,71.93,141.32A89.31,89.31,0,0,1,551.64,1593.14Z" transform="translate(1 3)"/>
      <path d="M551.78,1416.63a87.51,87.51,0,1,1-70.86,36.08,87,87,0,0,1,70.86-36.08m0-3v0a90.5,90.5,0,0,0-53.27,163.72,89.8,89.8,0,0,0,53.12,17.29,90.5,90.5,0,0,0,53.27-163.72,89.85,89.85,0,0,0-53.12-17.29Z" transform="translate(1 3)"/>
    </g>
  </g>
  <g id="b">
    <image x="1" y="3" width="1080" height="1920" xlink:href="ui/b.png"/>
    <rect id="b1" x="126.5" y="791.5" width="260" height="174" fill="#6162b1"/>
    <rect id="b2" x="409" y="792" width="260" height="174" fill="#6162b1"/>
    <rect id="b3" x="692" y="792" width="260" height="174" fill="#6162b1"/>
    <rect id="b4" x="126.5" y="988.5" width="260" height="174" fill="#6162b1"/>
    <rect id="b5" x="410" y="989" width="260" height="174" fill="#6162b1"/>
    <rect id="b6" x="692" y="989" width="260" height="174" fill="#6162b1"/>
    <rect id="b7" x="126" y="1192" width="260" height="174" fill="#6162b1"/>
    <rect id="b9" x="692" y="1192" width="260" height="174" fill="#6162b1"/>
    <rect id="b10" x="126.5" y="1395.5" width="260" height="174" fill="#6162b1"/>
    <rect id="b12" x="692" y="1396" width="260" height="174" fill="#6162b1"/>
    <rect id="b8" x="411" y="1192" width="260" height="174" fill="#6162b1"/>
    <rect id="b11" x="410" y="1396" width="260" height="174" fill="#6162b1"/>
  </g>
  <g id="c">
    <image x="1" y="3" width="1080" height="1920" xlink:href="ui/C.png"/>
    <rect id="c1" x="101.84" y="848.73" width="384.96" height="473.12" rx="12" ry="12" fill="#e6e6e6" stroke="#ffc5c1" stroke-miterlimit="10"/>
    <rect id="c2" x="595.2" y="848.73" width="384.96" height="473.12" rx="12" ry="12" fill="#e6e6e6" stroke="#ffc5c1" stroke-miterlimit="10"/>
    <rect id="c3" x="595.2" y="1388.01" width="384.96" height="473.12" rx="12" ry="12" fill="#e6e6e6" stroke="#ffc5c1" stroke-miterlimit="10"/>
    <rect id="c4" x="101.84" y="1388.01" width="384.96" height="473.12" rx="12" ry="12" fill="#e6e6e6" stroke="#ffc5c1" stroke-miterlimit="10"/>
  </g>
  <g id="d">
    <image width="1080" height="1920" transform="translate(4.11 3)" xlink:href="ui/d.png"/>
    <ellipse id="d1" cx="535.82" cy="773.3" rx="429.04" ry="415.54" fill="#fff" stroke="#900" stroke-miterlimit="10" stroke-width="7"/>
    <ellipse id="d2" cx="562.32" cy="1516.41" rx="478.55" ry="404.5" fill="#fff" stroke="#900" stroke-miterlimit="10" stroke-width="7"/>
  </g>
  <g id="e">
    <image width="1080" height="1920" transform="translate(1.12 3)" xlink:href="ui/e.jpg"/>
    <ellipse id="e1" cx="537.47" cy="546" rx="260.53" ry="214" fill="#ed1c24" stroke="#000" stroke-width="10"/>
    <ellipse id="e2" cx="544.97" cy="1041" rx="265.03" ry="218" fill="#ed1c24" stroke="#000" stroke-width="10"/>
    <ellipse id="e3" cx="544.97" cy="1566.81" rx="265.03" ry="218" fill="#ed1c24" stroke="#000" stroke-width="10"/>
  </g>
  <g id="f">
    <image width="1080" height="1920" transform="translate(5 6)" xlink:href="ui/f.jpg"/>
    <g id="f1">
      <rect x="176.85" y="1140.07" width="281.68" height="284.93" fill="#fff" opacity="0.5"/>
    </g>
    <g id="f2">
      <rect x="632.23" y="1140.07" width="281.68" height="284.93" fill="#fff" opacity="0.5"/>
    </g>
    <g id="f3">
      <rect x="176.85" y="1515.03" width="281.68" height="284.93" fill="#fff" opacity="0.5"/>
    </g>
    <g id="f4">
      <rect x="632.23" y="1515.03" width="281.68" height="284.93" fill="#fff" opacity="0.5"/>
    </g>
  </g>
  <g id="g">
    <image id="g.psd" width="1080" height="1920" transform="translate(1 3)" xlink:href="ui/g.jpg"/>
    <g id="g7">
      <path d="M610.49,1748,483,1674.38a3.37,3.37,0,0,0-5.05,2.92v147.26a3.37,3.37,0,0,0,5.05,2.92l127.54-73.63A3.38,3.38,0,0,0,610.49,1748Z" transform="translate(1 3)" fill="#fff" stroke="#000" stroke-miterlimit="10" stroke-width="10"/>
    </g>
    <g id="g6">
      <path d="M854.5,1526,727,1452.33a3.37,3.37,0,0,0-5.06,2.92v147.26a3.37,3.37,0,0,0,5.06,2.92L854.5,1531.8A3.38,3.38,0,0,0,854.5,1526Z" transform="translate(1 3)" fill="#fff" stroke="#000" stroke-miterlimit="10" stroke-width="10"/>
    </g>
    <g id="g5">
      <path d="M612.21,1528.42l-127.53-73.63a3.38,3.38,0,0,0-5.06,2.92V1605a3.37,3.37,0,0,0,5.06,2.92l127.53-73.63A3.37,3.37,0,0,0,612.21,1528.42Z" transform="translate(1 3)" fill="#fff" stroke="#000" stroke-miterlimit="10" stroke-width="10"/>
    </g>
    <g id="g4">
      <path d="M363.28,1530.89l-127.53-73.63a3.37,3.37,0,0,0-5.06,2.92v147.26a3.37,3.37,0,0,0,5.06,2.92l127.53-73.63A3.37,3.37,0,0,0,363.28,1530.89Z" transform="translate(1 3)" fill="#fff" stroke="#000" stroke-miterlimit="10" stroke-width="10"/>
    </g>
    <g id="g3">
      <path d="M856.07,1306.85l-127.54-73.63a3.37,3.37,0,0,0-5,2.92V1383.4a3.37,3.37,0,0,0,5,2.92l127.54-73.63A3.38,3.38,0,0,0,856.07,1306.85Z" transform="translate(1 3)" fill="#fff" stroke="#000" stroke-miterlimit="10" stroke-width="10"/>
    </g>
    <g id="g2">
      <path d="M609.84,1308.31l-127.53-73.63a3.38,3.38,0,0,0-5.06,2.92v147.26a3.37,3.37,0,0,0,5.06,2.92l127.53-73.63A3.37,3.37,0,0,0,609.84,1308.31Z" transform="translate(1 3)" fill="#fff" stroke="#000" stroke-miterlimit="10" stroke-width="10"/>
    </g>
    <g id="g1">
      <path d="M362.28,1309.31l-127.53-73.63a3.38,3.38,0,0,0-5.06,2.92v147.26a3.37,3.37,0,0,0,5.06,2.92l127.53-73.63A3.37,3.37,0,0,0,362.28,1309.31Z" transform="translate(1 3)" fill="#fff" stroke="#000" stroke-miterlimit="10" stroke-width="10"/>
    </g>
  </g>
  <g id="h">
    <image width="1080" height="1920" transform="translate(1.04 0.98)" xlink:href="ui/h.png"/>
    <circle id="h1" cx="339.8" cy="765.8" r="174.02" fill="#ccc" stroke="#ed1c24" stroke-miterlimit="10" stroke-width="5"/>
    <circle id="h2" cx="744.91" cy="765.8" r="174.02" fill="#ccc" stroke="#29abe2" stroke-miterlimit="10" stroke-width="5"/>
    <circle id="h4" cx="742.91" cy="1146.61" r="174.02" fill="#ccc" stroke="#ed1c24" stroke-miterlimit="10" stroke-width="5"/>
    <circle id="h3" cx="338.8" cy="1144.61" r="174.02" fill="#ccc" stroke="#29abe2" stroke-miterlimit="10" stroke-width="5"/>
    <circle id="h5" cx="547.12" cy="1507.64" r="174.02" fill="#ccc" stroke="#ed1c24" stroke-miterlimit="10" stroke-width="5"/>
  </g>
  <g id="i">
    <image x="1" y="3" width="1080" height="1920" xlink:href="ui/i.jpg"/>
    <rect id="i1" x="226" y="1272" width="640" height="176" fill="#3f3636" opacity="0.4"/>
    <rect id="i2" x="226" y="1536" width="640" height="176" fill="#3f3636" opacity="0.4"/>
  </g>
  <g id="j">
    <image width="1080" height="1920" transform="translate(1)" xlink:href="ui/j.jpg"/>
    <polygon id="j1" points="999.81 809.29 679.99 805.9 673.22 686.61 996.43 691.68 999.81 809.29" fill="#ffd800"/>
    <polygon id="j2" points="999.81 986.54 679.99 983.16 673.22 863.86 996.43 868.94 999.81 986.54" fill="#005bc1"/>
    <polygon id="j3" points="999.81 1167.61 679.99 1164.22 673.22 1044.93 996.43 1050 999.81 1167.61" fill="#ffd800"/>
    <polygon id="j4" points="1001.08 1444.28 679.57 1439.2 673.22 1215.84 996.43 1220.91 1001.08 1444.28" fill="#005bc1"/>
  </g>
  <g id="l">
    <image x="1" y="3" width="1080" height="1920" xlink:href="ui/l.jpg"/>
    <rect id="L1" x="82.85" y="1359.95" width="400.98" height="126.09" fill="#fff"/>
    <rect id="L2" x="572.6" y="1359.95" width="400.98" height="126.09" fill="#fff"/>
    <rect id="L3" x="82.85" y="1592.12" width="400.98" height="126.09" fill="#fff"/>
    <rect id="L4" x="572.6" y="1592.12" width="400.98" height="126.09" fill="#fff"/>
  </g>
  <g id="m">
    <image width="1080" height="1920" transform="translate(4 2)" xlink:href="ui/m.jpg"/>
    <path id="m10" d="M664.63,1254.18c-15.42-22-20.18-20.9-25.41-31.76-2.51-5.21,0-2.58-5.45-38.11-1.81-11.85-2.74-16.45,0-21.78,3-5.72,6.57-5.37,18.15-14.52,12.06-9.52,13.38-14,18.15-13.61,4.26.38,5.38,4.18,15.43,17.24a172.63,172.63,0,0,0,17.24,20,111.94,111.94,0,0,0,19.06,14.52c16.18,9.82,20.84,7,30.85,15.43,3.21,2.71,15.36,13,13.61,23.59-1.13,6.87-7.12,7.9-8.16,15.43-1.23,8.82,5.71,16.45,7.26,18.15,1.93,2.13,7.84,8,33.57,11.8,15.09,2.22,28.54,4.07,45.38,0,10.42-2.53,20-4.85,23.59-12.71,3.91-8.59-1.46-19.27-3.63-23.59-5.9-11.73-12.74-12.71-14.52-20.87-1.87-8.57,1.4-19.3,8.17-22.69,4.92-2.47,9.92-.19,20,3.63,0,0,16.45,6.25,38.12,12.71,16.17,4.81,29.15,6.15,39.92,7.25,17.53,1.81,26.3,2.71,35.4.91,16.1-3.17,25.29-10.6,29.94-6.35,2.93,2.67,2.32,8.38.91,11.8-3.21,7.78-13.12,10-20.87,11.79-4.78,1.09-8.72,1.47-29.95,1.82-15.48.26-20.78.18-22.69,3.63s2.2,6.08,1.82,14.52c-.21,4.68-2,8.57-5.45,16.33-2.8,6.25-4.21,9.38-6.35,10.89-5.5,3.9-10-.14-15.42,3.63-5.11,3.53-3.34,8.51-8.17,10.89s-7.73-2-13.61,0c-1.25.43-2.9,1.24-10.89,10.89-5.23,6.31-4.78,6.27-7.26,9.08-8.23,9.28-12.09,8.53-14.52,13.61-2.7,5.63.88,9,2.72,20.87,1.19,7.67.07,8.65-.91,30-1.2,26.18.56,23.1-.91,29-3.92,15.83-15,31.67-16.33,33.57-2.92,4.12-5.82,7.61-7.26,13.61-1,4.25-.68,8.58,0,17.25.75,9.53,1.76,11,2.72,11.79,3.14,2.77,6.41.07,12.71,1.82,7.23,2,11.49,7.94,13.61,10.89,1.7,2.37,2.41,4,6.35,16.33,5.59,17.45,5.94,19.63,4.54,21.78-3.12,4.8-11.76,4.63-16.34,4.54-7.51-.15-7.69-2.53-15.42-2.72-8.17-.21-10,2.39-16.34.9-1.9-.45-8.9-2.11-10-6.35-1.47-5.78,9.58-10.42,8.17-16.33-1.15-4.83-9.26-4.87-10-10-.55-3.89,3.85-6,2.72-9.07-1-2.68-5.48-4-9.08-3.63-6,.67-6.33,5.92-11.79,7.26-6.89,1.69-9.9-5.83-19.06-5.44-5.32.22-11.57,3.06-12.7,7.26-1.37,5,4.53,12.7,4.53,12.7h0a73,73,0,0,1-8.16,11.8c-4.22,4.72-5.26,3.6-10.89,9.07-6.8,6.6-5.73,8.66-9.08,10-7,2.77-11.26-6.46-22.69-6.35-8.62.08-10.81,5.39-18.15,3.63-6.15-1.47-9.77-6.45-10.88-8.17-5.06-7.79-2.84-16.92-1.82-20.87,2.29-8.86,6-10.46,23.59-31.76A128.12,128.12,0,0,0,740,1453.83c3.41-7.3,4.3-11.07,2.72-12.71-2.4-2.49-9.26,1.23-15.43,3.63-11.07,4.31-13.89,2-53.54,2.72-26.94.49-32.38,1.67-35.39-2.72-1.28-1.86-2.59-5.42,6.35-29.94,4.5-12.34,7.08-19.41,12.71-30.86,5.47-11.13,11.51-23.42,21.78-38.11,11.73-16.78,19.41-23,18.15-33.58a26.46,26.46,0,0,0-6.36-13.61c-9.21-10.27-22.84-7.78-24.5-14.52-1-4.06,3.74-5.82,4.54-12.7C671.75,1264.8,668.21,1259.3,664.63,1254.18Z" transform="translate(1 3)" fill="#fff" stroke="#000" stroke-miterlimit="10" stroke-width="6"/>
    <path id="m9" d="M682.78,1073.6c4.71-3.44,8.31-2,35.39,0,27.82,2.06,31.52,1.11,34.48,0,14-5.26,12.59-14.58,26.32-19.06,1.78-.58,11.8-.09,31.76.91-4.43-.22-5.89-.33,30.85,0,4.3,0,8.15.09,12.71-1.82,4.37-1.83,7.51-5.17,13.61-11.79,6.92-7.52,10.38-11.28,11.8-15.43,2.38-7,.3-11,3.63-13.61,3.7-2.91,7.79.87,11.79-1.82,5.66-3.8,2-14.4,6.36-16.33,3.86-1.72,7.8,6.19,15.42,5.44,5-.49,5.8-4.14,10-3.63,4.63.57,8.51,5.62,10,10,1.69,5-.41,7.44,1.81,10,2.86,3.28,7.49.62,10,3.63,2.38,2.85-.67,6.62,0,13.61a25.39,25.39,0,0,0,4.54,11.8c4.41,6.61,10.64,9.26,20.87,13.61a78.13,78.13,0,0,0,16.34,5.44c10.32,2.09,13.8.32,17.24,3.63,2.92,2.8,3.15,7.32,3.63,16.34.39,7.42.59,11.13-1.82,14.52,0,0-.91,1.29-9.07,7.26a65.26,65.26,0,0,0,0,12.7c.71,7.24,2.51,12.78,4.54,19.06,1.6,5,3.09,8.67,3.63,10,5.05,12.39,7.58,18.59,12.7,20.87,1.78.79,1.48.14,12.71.91,7.67.52,11.54.8,13.61,1.81,6.31,3.09,11.43,11.28,9.41,16.34-1.53,3.84-6.18,3.39-15.76,7.26-11.84,4.78-12.75,8.7-21.78,12.7-7.93,3.52-15.07,3.6-29,3.63a201.81,201.81,0,0,1-42.65-4.53c-11.55-2.48-21.91-5.65-39-10.89a255,255,0,0,0-28.14-6.36c-11.78-2-16.89-2.15-20.87.91s-4.86,7.59-6.35,14.52c-1.09,5.08-2.71,12.62,0,20.87,3.12,9.5,8.76,10.16,10.89,18.15,1.68,6.3,1.52,15.62-3.63,20-4.06,3.42-8.69,1.65-20,.9-5-.33-15.14.39-35.4,1.82s-23.52,2.53-29,0c-7.93-3.64-17-11.79-16.34-20,.57-7.44,8.62-8.64,10-18.15.88-6.09-1.61-11.25-3.63-15.42-3.17-6.58-7.38-10.5-11.79-14.52a89,89,0,0,0-18.15-12.71c-17.58-9.47-21.54-5.54-29-12.7-7.16-6.84-3.66-10.52-12.71-21.78-7.77-9.68-11.68-8.61-16.33-16.33-4.87-8.1-4.73-16.16-4.54-26.32C674,1093.29,674.24,1079.83,682.78,1073.6Z" transform="translate(1 3)" fill="#fff" stroke="#000" stroke-miterlimit="10" stroke-width="6"/>
    <path id="m8" d="M221.84,851.83c1.63-1.56,3.82-.12,9.72.47,12.31,1.22,15.79-3.75,25-.93,3.95,1.21,3.66,2.24,7.87,3.24,4.77,1.14,6.33.11,14.35,0,8.54-.11,12.81-.17,16.2,2.32,2.7,2,3.18,4,6,4.62,3.63.77,7-1.69,7.87-2.31,5.18-3.76,4.53-8.81,7.41-9.26s6.4,4.27,7.87,8.33c1.4,3.88.9,7,.46,11.11-1,8.93.46,3-.93,19.91-.89,11-1.34,16.51-2.31,22.21S319.09,923,319,931a29.57,29.57,0,0,0,1.38,9.72c1,3,1.9,5.85,4.17,7.87,5,4.45,11.55.38,15.27,3.24,5.18,4,.62,18-1.85,25.46-20.63,61.93-27.15,60.11-28.23,75.91-.25,3.68-.66,14.78-8.33,21.29a24.59,24.59,0,0,1-6.48,3.7,70.83,70.83,0,0,1-23.61,5.56c-17.56,1.28-14.3,3.86-36.1,6-17.93,1.78-27,2.56-33.33-2.31-3.64-2.82-6.13-8-11.11-18.52-5.12-10.77-5.25-14.52-9.72-20.82-3.08-4.35-6.82-9.41-13.42-12.5-9.35-4.37-16.32-.89-19.44-5.56-1.31-2-1.17-4.21.46-11.57,3.3-14.84,6-22.21,6-22.21,6.9-18.68,8.56-16.52,11.11-26.85,2.26-9.15,1.52-13.13,5.55-16.66,4.28-3.75,7.33-1.21,14.35-5.56,5.76-3.56,10.14-9.25,11.57-11.11,3.45-4.48,4.28-7,7.41-7.86,3.63-1,5.92,1.53,8.33,0,2.11-1.34,1.27-3.84,2.78-7.87,2.22-6,6.14-6.19,8.79-11.11,1.39-2.57,1.25-6.53.93-14.35-.7-16.77-1.06-25.19-1.39-26.85C222.24,858.52,219.51,854.05,221.84,851.83Z" transform="translate(1 3)" fill="#fff" stroke="#000" stroke-miterlimit="10" stroke-width="6"/>
    <path id="m7" d="M158,1222.26c-.44,6.74,5.32,12.2,6.14,13,7,6.47,13,2.25,21.15,8.18,7.94,5.75,6.23,12.52,12.29,14.33,8.38,2.52,17.34-8.74,20.47-6.14,2.65,2.21-3.54,10.5,0,15,2.64,3.37,9,2.5,12.28,2.05,10.33-1.41,11.86-6.88,21.15-8.87,8.72-1.86,16.38,1,19.11,2,11.34,4.27,12.39,11.14,19.79,11.6,6.81.42,10.46-5.11,17.74-10.24,9.88-7,19.22-8.06,37.53-10.23,27.16-3.22,53.65.75,75.06,4.09,17,2.66,25.77,5,33.44-.68,8.19-6.05,12.58-19.26,8.19-28-2.54-5-7.84-7.23-18.43-11.6-14-5.77-17.26-3.92-29.34-9.55-9.85-4.59-8.7-6.31-16.37-8.87-10.85-3.63-13.87-.45-23.89-4.1-8.21-3-13.54-7.8-17.74-11.6-3.92-3.54-10.16-9.18-14.33-18.42-3.38-7.49-1.49-8.67-4.78-17.06-3.57-9.12-6.31-9-13-20.47-4.82-8.31-3.77-9-11.6-24.57-6.78-13.44-8.93-15.6-11.6-17.06-4.32-2.35-8.58-2.1-20.47,0-18.14,3.22-22.07,5.08-35.49,7.51-15.07,2.73-22.61,4.09-30,3.41-8.67-.79-12.91-2.82-16.38,0s-1.9,7.06-2.73,22.52-2.8,18.16,0,22.52c3,4.65,6.61,3.87,12.29,10.92,2.5,3.11,5,6.26,5.45,10.23.53,5-2.53,9.59-11.6,18.43a337.56,337.56,0,0,1-28,23.88C162.67,1213.65,158.37,1216.73,158,1222.26Z" transform="translate(1 3)" fill="#fff" stroke="#000" stroke-miterlimit="10" stroke-width="6"/>
    <path id="m6" d="M330.32,873.74c4.95-5.86,14-8.32,20.35-8.53,8.35-.28,13.53,3.3,17.73,0,3.36-2.65,1.47-6,4.6-9.2,5.67-5.71,21.34-4.1,27.58,3.94,4.09,5.28,2.26,10.94,7.22,13.79,3,1.71,6.21,1.18,9.19.66,8.47-1.49,11.61-5.69,19-9.85A55.29,55.29,0,0,1,461.64,858c2.16,0,16.61.08,19,6.57,1.21,3.23-1.55,5.41,0,7.88,2.32,3.68,10.75,2.44,18.39,1.31a95.19,95.19,0,0,0,11.82-2.63c11-3.08,10.24-4.54,13.79-4.59,9.06-.12,10.17,9.47,23.63,13.79,6.75,2.16,8.35.35,13.79,3.28,6.52,3.51,9.89,9.15,11.82,12.48,2.37,4.07,3.26,7.21,6.57,21.66,2.56,11.22,3.84,16.82,3.94,17.73.87,8.33-.63,16.41-7.23,32.18-13.68,32.71-23.69,37.33-26.26,58.43a88.93,88.93,0,0,0,0,19.7c2.53,23.44,12.43,29.74,8.54,41.37-2.77,8.27-10.49,13.18-19.7,19-11.56,7.35-16.28,5.58-23.64,13.13s-6.7,13.54-12.48,15.11c-6.52,1.76-9.09-5.38-19-5.91-10.13-.55-12.14,6.6-21,5.25-3.83-.59-3.93-2-17.73-11.16-7-4.67-10.53-7-13.79-8.54a48.33,48.33,0,0,0-24.29-4.6c-3.85.35-6.09,1.1-15.76,4.6-11.59,4.2-23.21,8.28-34.8,12.48-17.44,6.32-21.13,7.33-24.95,5.25-3.56-1.94-4.51-5.09-9.85-17.07s-5.45-13.91-9.19-19.7c-5.17-8-7.24-7.36-8.54-11.82-1.95-6.72,2-10.79,7.22-24.3,5.68-14.63,3-14.85,8.54-28.23,4.75-11.41,6.65-11.1,11.16-22.32,3.72-9.25,2.67-10,7.23-25.61,6.24-21.34,11.25-30.17,7.22-34.15-2.52-2.48-5.39.08-11.16-2.62-8.5-4-11.45-13.78-11.82-15.1-2.17-7.61,1-10.74,3.28-23.64C330,886.68,324.22,881,330.32,873.74Z" transform="translate(1 3)" fill="#fff" stroke="#000" stroke-miterlimit="10" stroke-width="6"/>
    <path id="m5" d="M586.19,902.22c3-3.53,6.83-1.15,12.39-5.31,6.13-4.58,5.13-10.14,9.45-11.21,2-.5,3.36.42,13,6.49,9.85,6.22,11.82,7.38,14.75,7.08,2.41-.25,4.56-1.74,8.85-4.72a39.29,39.29,0,0,0,8.85-7.67c4.71-5.85,2.88-8.5,7.08-14.75,3.33-5,4.65-3.56,10.62-10,7.86-8.52,6.91-12.4,11.8-14.17,5.68-2,8.62,2.56,14.75,0,5-2.09,5.92-6.35,8.86-5.9,2.49.39,2.89,3.63,6.49,8.85,3.8,5.53,5.75,5.37,8.85,9.45,4.63,6.09,2.5,9.36,5.9,18.88,4,11.18,7.7,8.84,11.8,20.06,2.87,7.85,2.23,12.21,7.08,19.47,1.83,2.74,4.63,6.83,7.67,6.49,3.41-.37,3.27-5.88,7.67-10,6.05-5.7,17.87-6.17,25.37-1.77,8.49,5,10.18,15.43,13,14.75s.49-10.24,4.73-12.39c4.6-2.34,14.11,5.51,18.88,9.44,5.4,4.46,6.52,6.72,10,7.08,6.05.63,9-5.46,12.39-4.13,4.12,1.61.36,10.8,5.9,20.06,3.74,6.25,9.89,9.51,15.34,12.4,3.08,1.63,3.35,1.39,13.57,5.31,15.38,5.89,17.3,7.39,18.88,9.44.32.4,5,6.59,3.55,14.16-1.37,7.35-7.64,11.68-11.22,14.16-8,5.56-12.3,3.67-14.75,8.26-2.35,4.42.93,7.41-1.77,14.75a19.11,19.11,0,0,1-4.72,7.67c-5.76,5.47-11.08,2.21-15.93,7.08-4.16,4.19-2,8.37-5.9,10.62-3,1.75-5.18-.27-13.57-1.18-5.85-.62-5.68.27-15.34,0a118.14,118.14,0,0,1-15.34-1.18c-11.76-1.77-11.78-4.15-17.71-4.13-6.57,0-11.65,3.37-21.83,10-12.87,8.43-12.39,11.21-19.47,13.57-5.5,1.83-5.84.17-23.6,0-18.42-.18-20.18,1.58-28.33-.59-9-2.41-11.25-5.74-14.75-4.13s-4.75,6.51-5.9,27.73c-1.32,24.43-.23,28.61-4.13,35.4-1.31,2.28-6.57,6.83-17.11,15.93-14.42,12.46-18,14-21.83,14.76-8.87,1.65-16.53-1.78-18.88-3-7.31-3.64-6.67-7.08-14.76-12.4-5-3.28-10-4.74-20.06-7.67-14.19-4.13-16.33-2.9-22.42-6.49-5.62-3.31-14.34-10.57-13-16.52,1-4.57,7-4,15.34-12.39,3.12-3.14,6.14-6.18,7.67-10.62,2.24-6.49-.53-10.69-5.31-26.55-3.91-13-5.85-19.62-5.31-26.56.38-4.92,1.55-7.85,6.49-19.47,5.09-12,7.64-18,14.75-34.22,7.85-18,11.79-27.05,12.39-33.05a118.62,118.62,0,0,0-.59-27.14C585.21,912.33,582.7,906.28,586.19,902.22Z" transform="translate(1 3)" fill="#fff" stroke="#000" stroke-miterlimit="10" stroke-width="6"/>
    <path id="m4" d="M458.06,1259.38c-9.36-.44-10.19,1.38-21.06,1.28-10.34-.09-10.36-2.13-19.91-1.85-14.64.45-21.68,5.32-48.38,1.21-17.23-2.64-26.33-6.52-39.57-1.91-4.25,1.48-11.79,4.22-14.81,11.09-4.16,9.46,1.9,23,11,29.58,10.61,7.75,19.22,1.53,27.39,9.86a23.71,23.71,0,0,1,5.48,23c-2.24,6.82-7.67,10.55-9.86,12-9.73,6.68-15.68,2.12-23,7.67-6.84,5.18-8.27,14.13-9.86,24.11-1,6-.66,12.14,0,24.1,1.11,20.22,2.43,19.15,2.19,28.49-.46,17.61-5.17,22.17-1.1,28.48,5.4,8.36,19.06,8.7,21.92,8.77,8.15.2,9-2.62,23-4.38,9.69-1.22,14.64-1.77,19.73,1.09a20.6,20.6,0,0,1,9.86,13.15c1,4.86,0,12,0,12h0c-.44,3.27.22,7.63,1.93,8.94,3.13,2.38,9-6.05,16-4.47,3.5.79,3.25,3.18,10.21,8.94,5,4.16,9,7.4,13.4,7,2.23-.2,4-1.26,9.58-7,9.51-9.89,14.27-14.84,16.59-21.07a126,126,0,0,0,4.47-15.31c.8-3.77.82-4.86,1.91-6.39,3.55-5,9.33-1.76,15.32-5.74,3.18-2.12,5.74-8,10.85-19.79,2.92-6.72,3.35-8.58,5.11-8.93,4-.8,6.62,7.7,17.23,14,2.54,1.52,8.22,4.92,10.21,3.19,2.28-2-1.58-9.53-7.09-21.3-11.05-23.6-5.69-14.92-14.52-32.67-4-8.05-10.54-20.75-20-37.2-13.4-23.39-18.64-29.93-18.15-41.75.2-5,.55-13.39,6.35-19,4.7-4.59,9.69-4.2,11.8-9.08,1.92-4.45.06-10.15-2.73-13.61C474.83,1260.18,466.86,1259.8,458.06,1259.38Z" transform="translate(1 3)" fill="#fff" stroke="#000" stroke-miterlimit="10" stroke-width="6"/>
    <path id="m3" d="M64.56,1018.78c1.76,5-3.87,6.51-5.46,17.63-.58,4.11-1.63,11.45.84,19.3.67,2.11,1.68,4.58,1.26,8-.36,2.92-1.48,4.1-3.36,8-2.32,4.81-3.93,8.12-4.19,12.17-.43,6.41,2.86,8.94.84,12.17-1.19,1.9-2.45,1.22-6.3,4.2-2.44,1.88-4.82,3.73-5.87,6.71-1.13,3.22-.2,6.28.84,9.66,1.62,5.3,3.46,5.78,3.35,9.23-.08,2.55-1.09,2.36-1.68,6.71a63,63,0,0,0-.42,6.72,28.94,28.94,0,0,0-6.29,4.61,14.82,14.82,0,0,0-3.36,6.72c-1.55,5.89.92,7.72.42,16-.19,3.22-.35,5.75-1.68,8.81-1.66,3.84-3.27,4.12-4.61,8-1.49,4.28,0,5.29-1.68,8-1.55,2.45-3,1.91-6.3,5.45-1.79,1.93-3.12,3.36-3.35,5.46-.29,2.57,1.25,4.64,2.51,6.29a20.33,20.33,0,0,0,11.33,7.14c.77.14,9,1.52,14.69-3.78a15.86,15.86,0,0,0,3.37-4.65c2.09-4.12,2.35-8.55,2.51-11.72.2-4-.28-5.15.84-6.71,1.6-2.24,3.66-1.38,5-3.36s-.06-3.91-.42-10.49c-.21-4-.3-6,.84-7.13,1.86-1.78,4.41.36,9.24-.84.75-.19,6.24-1.56,7.13-5,.74-2.91-2-6.24-3.78-8.39-2.44-3-4.26-3.58-4.19-5.46.07-2.12,2.51-4.62,2.51-4.62s3.18-1.53,4.2-3.35c1.28-2.29-.91-4.9-2.52-9.65-.92-2.73-1.17-5.32-1.68-10.5-.92-9.5.9-9.2,0-17.62-.4-3.77-1.11-7.11,0-11.75.4-1.66,1.17-4.71,2.94-5,1.54-.28,3.06,1.62,3.78,2.52s2.38,3.19,2.94,8.81c.36,3.65-.25,3.93,0,8.81a39,39,0,0,0,.84,7.14A23.56,23.56,0,0,0,83,1121.6a54.5,54.5,0,0,0,5.88,6.3,64.7,64.7,0,0,1-1.26,7.55c-.88,3.48-1.93,4.63-2.94,7.14-2.26,5.63-1.38,11-.42,16.78.89,5.35,1.46,8.83,4.2,12.17,2.24,2.73,3.49,2.4,5,5,2.27,3.85.48,6,2.1,11.33a20.28,20.28,0,0,0,5,8.39c3.32,3.22,5.18,2.38,11.33,5.88a47.59,47.59,0,0,1,10.07,7.55c5.26,5.22,6.13,8.82,9.23,8.81,2.22,0,2.65-1.82,6.72-2.51a17.62,17.62,0,0,1,5.46,0c3.34.45,4.14,1.38,6.29,1.68,3.18.43,5.77-1,8.39-2.52,5.55-3.14,5.85-6,11.75-10.49,3.1-2.39,3.65-2.09,7.56-4.62,2.2-1.42,5.16-3.54,13.85-12.17a219.3,219.3,0,0,0,15.94-17.63c5.1-6.27,6.63-8.83,5.88-11.33-.46-1.54-1.53-2.18-8.39-6.71-7.63-5-8.2-5.51-8.82-6.3-3.62-4.6-1.8-11.23-.84-16.36a99.24,99.24,0,0,0-2.51-41.55c-2.36-8.06-3-4.48-11.33-23.92-5.3-12.37-6.46-17.16-11.76-21.4-4.38-3.53-7-3-19.3-5.88-7.6-1.8-8.46-1.44-9.26-2.25-1-1.07-2.91-3.8-1.07-12.76,1.93-9.33,5.3-12.89,8.79-20.86,4.67-10.66,1.08-9.84,6-23.07,4.62-12.3,7.68-12.9,11-24.71,1.21-4.35,1.33-6.19,3.29-8.24,4.59-4.81,10.4-1.57,18.67-6,2.23-1.21,1.08-1,9.89-8.79,4.42-3.88,8.21-7.21,13.18-11,9-6.85,9.95-6,11.53-8.79,2.69-4.65.07-7-.55-20.87-.33-7.53.21-12-1.09-21.42-.79-5.68-1.6-8.4-3.85-9.89-2.72-1.79-4.68.09-11.53,0-8.24-.1-10.15-2.88-14.83-1.09a12.44,12.44,0,0,0-6.59,6c-1.87,3.91,2.44,6.88,1.1,12.63a7.16,7.16,0,0,1-2.08,4.16c-2.37,2-5.41.71-10.52.23-4.39-.4-11.95-1.1-18,2.57-2.83,1.73-3.74,3.44-7.47,4.68-1.92.63-4.36,1.44-7,.7-3.61-1-3.88-3.82-8.64-7.25a18.17,18.17,0,0,0-6.31-3.27c-8.1-1.74-16.59,8.52-19.4,11.92-3.46,4.18-8.75,10.57-9.12,19.4-.31,7.35,3,11,.24,15.66-2,3.31-5.65,4.7-8.65,5.84-1.83.7-3.84,1.22-12.86,1.87-10.1.73-12.16.4-14.72,2.34s-5,5.5-4.21,8.65c1.07,4.3,7.4,3.87,8.42,8.18.75,3.22-2.51,4.62-2.34,10.05.09,2.92,1.06,3.39,1.4,6.07.45,3.59-.89,5.85-4.21,12.63-4.89,10-6.51,14.36-7.48,17.29-1.56,4.74-2.34,7.1-1.87,8.88C51.89,1013.29,62.24,1012.27,64.56,1018.78Z" transform="translate(1 3)" fill="#fff" stroke="#000" stroke-miterlimit="10" stroke-width="6"/>
    <path id="m2" d="M531.71,1432.74c2.49,1.46,3.4,7.4,13.39,2.56,2.84-1.37,4-5.3,14-8.64,9.72-3.24,15.59-1.74,20.7-2.61,1.89-.32,8.82-3.77,16.46-4.4,12.23-1,13.61-3.82,15.65-3.59,12.54,1.44,14.9,10,21.36,8.48,8.87-2.15,12.89-20.56,15.73-30,2.59-8.54,1.51-10.15,3.83-17.87s5.55-13.31,14-25.53c19.76-28.42,25.88-32.06,24.25-39.57-1.52-7-8.8-12.67-14.68-17.23-8.25-6.4-15.07-8-15.31-12.76-.19-3.77,4-4.7,5.74-10.22,1.88-5.91-.79-11.62-3.19-16.59-4.66-9.63-8.78-11-18.51-23-7.66-9.45-11.5-14.18-13.4-21.06-1.47-5.29-1-11.83,0-24.89,1.19-15.88,2.84-20.47-.64-24.89-1-1.32-1.82-1.72-13.4-6.38-15.64-6.3-17.21-6.78-20.43-8.94-7.34-4.91-5.88-6.88-11.48-9.57-8.15-3.9-11.37.17-21.07-3.19-5.1-1.77-8.54-4.4-15.31-9.57-9.35-7.14-9.34-9.54-13.41-10.22-7.47-1.25-14.83,5.6-19.78,10.22-9,8.37-8.62,13.47-14,14.67-6.74,1.5-9-6-20.43-8.29-10.91-2.17-13,3.86-22.33,1.27-10.17-2.82-9.82-10.57-21.07-13.4-6.91-1.74-7.92,1-15.31-1.28-8.38-2.54-9.77-6.83-16-7.65-6.35-.85-11.24,2.82-15.95,5.74-24.81,15.37-43.94,9.44-47.23,20.42-.85,2.84.92,7.22,4.46,16,4.53,11.15,7.63,18.8,14,24.89,5.6,5.32,14.87,7.66,33.18,12.13,14.34,3.49,16.26,3,31.91,7,9.08,2.33,16.73,4.63,25.53,8.93,13.94,6.81,16.44,11.64,17.24,13.4,3.26,7.28.88,15,0,17.88-3.71,12-12.26,14.94-10.85,19.78,1.76,6.08,15.44,2.11,22.76,11.16,5.45,6.74,5.45,18.34.9,25.41-3.74,5.82-8.31,5.07-10.89,10-3.87,7.38,2.15,17.24,7.26,26.32,18,32,9.75,27.31,25.41,52.63,13.06,21.11,18.12,24.59,17.35,38C521.9,1424.54,528.86,1431.07,531.71,1432.74Z" transform="translate(1 3)" fill="#fff" stroke="#000" stroke-miterlimit="10" stroke-width="6"/>
    <path id="m1" d="M447.32,1504.57c.63-.73,1.13-1.22,1.28-1.37a83,83,0,0,0,9.53-12.37c3.78-5.9,5.67-8.84,6.87-13.26,2.16-8-.46-10.9,2.45-14.24,3.24-3.69,7.2-.93,12.28-4.91,1.58-1.23,3.36-4.77,6.87-11.78,3.36-6.72,4.27-9,6.87-12.76,3.25-4.66,4.88-7,6.88-6.88,4.24.23,3.52,10.73,11.29,15.71,5.36,3.44,11.89,2.41,14.73,2,4.71-.74,7.06-2.44,13.74-5.89a177.63,177.63,0,0,1,17.19-7.86c12.94-4.74,15.35.37,31.42-2.94,15.19-3.14,19-8.93,25.53-5.9,2.28,1.06,3,2.31,11.78,16.21,8.49,13.45,9.19,14.48,10.8,15.71,8,6.08,19.39,2.55,30.44,0,24.28-5.62,62.26-10.09,66.28-1.48,1.05,2.27-1,3.7-14.73,23.08-26.84,38-13,24.29-22.1,35.84-2.22,2.8-5.72,7-4.9,11.78.64,3.82,3.41,4.28,7.85,10.8a52.86,52.86,0,0,1,6.38,13.26c.51,1.46,1,3,3,12.27,3.4,16.06,3.45,18.38,2,20.62-1.72,2.6-4.41,3.41-9.33,4.91-3.24,1-11,3.35-18.16,0-3.45-1.62-3.88-3.24-7.86-4.42a21.48,21.48,0,0,0-8.83-.49c-1.75.3-7.33,1.53-17.19,13.25-8.51,10.13-8,13.61-13.74,16.21-6.42,2.91-13.11,1.27-14.24,1-2.75-.72-5.76-2.61-11.78-6.39-6.71-4.21-7.76-5.52-11.29-6.38-3.71-.89-6.74-.45-9.82,0-8,1.17-8.4,3.82-15.22,4.42-5,.44-5.55-.88-10.8,0-4.78.8-5.1,2-8.35,2-4.87-.08-5.63-2.86-10.8-3.43a16.25,16.25,0,0,0-9.82,2c-5.39,3.27-4.37,8.17-8.84,9.82-3,1.13-6.14-.19-10.31-2-6.59-2.81-6.63-5.15-10.8-6.88-8.55-3.54-13.09,4.38-22.58,1.48-5.13-1.57-8.37-5.28-12.76-10.31-3.85-4.41-6.1-7-5.9-10.31.33-5.23,6.28-5.41,9.82-12.28,3.24-6.27,1.79-12.91,0-21.11-1.4-6.4-2.47-11.34-6.38-13.25-4.16-2-7.58,1.29-10.31-1-3.51-2.93,1.12-9.34-2.95-14.24-2-2.4-4.27-2.28-7.36-6.38-1.21-1.61-1.95-2.62-2-4.11C443.17,1509.41,445.48,1506.72,447.32,1504.57Z" transform="translate(1 3)" fill="#fff" stroke="#000" stroke-miterlimit="10" stroke-width="6"/>
  </g>
  <g id="n">
    <image width="1080" height="1920" transform="translate(0 6)" xlink:href="ui/n.jpg"/>
    <g id="n1">
      <rect x="33.5" y="461.5" width="1007" height="516" fill="#fff" opacity="0.5"/>
    </g>
    <g id="n2">
      <rect x="32.5" y="986.5" width="1007" height="545" fill="#fff" opacity="0.5"/>
    </g>
  </g>
  <g id="home">
    <image x="1" y="3" width="1080" height="1920" xlink:href="ui/home.jpg"/>
    <rect id="zo" x="710.2" y="1417.57" width="186.31" height="186.31" fill="#0071bc" stroke="#fff" stroke-miterlimit="10" stroke-width="3"/>
    <rect id="zn" x="449.36" y="1417.57" width="186.31" height="186.31" fill="#0071bc" stroke="#fff" stroke-miterlimit="10" stroke-width="3"/>
    <rect id="zm" x="185.58" y="1417.57" width="186.31" height="186.31" fill="#0071bc" stroke="#fff" stroke-miterlimit="10" stroke-width="3"/>
    <rect id="zl" x="708.7" y="1156.82" width="186.31" height="186.31" fill="#0071bc" stroke="#fff" stroke-miterlimit="10" stroke-width="3"/>
    <rect id="zk" x="447.86" y="1156.82" width="186.31" height="186.31" fill="#0071bc" stroke="#fff" stroke-miterlimit="10" stroke-width="3"/>
    <rect id="zj" x="184.08" y="1156.82" width="186.31" height="186.31" fill="#0071bc" stroke="#fff" stroke-miterlimit="10" stroke-width="3"/>
    <rect id="zi" x="708.57" y="896.06" width="186.31" height="186.31" fill="#0071bc" stroke="#fff" stroke-miterlimit="10" stroke-width="3"/>
    <rect id="zh" x="447.73" y="896.06" width="186.31" height="186.31" fill="#0071bc" stroke="#fff" stroke-miterlimit="10" stroke-width="3"/>
    <rect id="zg" x="183.95" y="896.06" width="186.31" height="186.31" fill="#0071bc" stroke="#fff" stroke-miterlimit="10" stroke-width="3"/>
    <rect id="zf" x="707.17" y="633.55" width="186.31" height="186.31" fill="#0071bc" stroke="#fff" stroke-miterlimit="10" stroke-width="3"/>
    <rect id="ze" x="446.33" y="633.55" width="186.31" height="186.31" fill="#0071bc" stroke="#fff" stroke-miterlimit="10" stroke-width="3"/>
    <rect id="zd" x="182.55" y="633.55" width="186.31" height="186.31" fill="#0071bc" stroke="#fff" stroke-miterlimit="10" stroke-width="3"/>
    <rect id="zc" x="707.04" y="372.8" width="186.31" height="186.31" fill="#0071bc" stroke="#fff" stroke-miterlimit="10" stroke-width="3"/>
    <rect id="zb" x="446.2" y="372.8" width="186.31" height="186.31" fill="#0071bc" stroke="#fff" stroke-miterlimit="10" stroke-width="3"/>
    <rect id="za" x="182.42" y="372.8" width="186.31" height="186.31" fill="#0071bc" stroke="#fff" stroke-miterlimit="10" stroke-width="3"/>
  </g>
  <g id="back">
    <rect x="2" y="3" width="1078" height="82" fill="#e6184e"/>
    <text transform="translate(289.44 62.67)" font-size="48" fill="#fff" font-family="ArialMT, Arial">BACK<tspan x="130.71" y="0" xml:space="preserve" letter-spacing="-0.02em"> T</tspan><tspan x="171.63" y="0">O COUNTRIES</tspan></text>
  </g>
</svg>
